<mxfile host="app.diagrams.net" modified="2022-03-27T11:07:34.973Z" agent="5.0 (Macintosh; Intel Mac OS X 10_15_7) AppleWebKit/605.1.15 (KHTML, like Gecko) Version/15.4 Safari/605.1.15" etag="jhChgEhNhdwxXJzoEoO4" version="17.2.0" type="github">
  <diagram id="6_ktW8j1tNqKv3w79igl" name="Page-1">
    <mxGraphModel dx="690" dy="606" grid="1" gridSize="10" guides="1" tooltips="1" connect="1" arrows="1" fold="1" page="1" pageScale="1" pageWidth="827" pageHeight="1169" math="0" shadow="0">
      <root>
        <mxCell id="0" />
        <mxCell id="1" parent="0" />
        <mxCell id="9nWUdpXoiX7ommuwFst7-1" value="TensorFlow Public Model Applications" style="rounded=0;whiteSpace=wrap;html=1;" vertex="1" parent="1">
          <mxGeometry x="294" y="60" width="120" height="60" as="geometry" />
        </mxCell>
        <mxCell id="9nWUdpXoiX7ommuwFst7-5" style="edgeStyle=orthogonalEdgeStyle;rounded=0;orthogonalLoop=1;jettySize=auto;html=1;exitX=0.5;exitY=0;exitDx=0;exitDy=0;entryX=0.5;entryY=1;entryDx=0;entryDy=0;" edge="1" parent="1" source="9nWUdpXoiX7ommuwFst7-3" target="9nWUdpXoiX7ommuwFst7-1">
          <mxGeometry relative="1" as="geometry" />
        </mxCell>
        <mxCell id="9nWUdpXoiX7ommuwFst7-9" style="edgeStyle=orthogonalEdgeStyle;rounded=0;orthogonalLoop=1;jettySize=auto;html=1;entryX=0.5;entryY=0;entryDx=0;entryDy=0;" edge="1" parent="1" source="9nWUdpXoiX7ommuwFst7-3" target="9nWUdpXoiX7ommuwFst7-8">
          <mxGeometry relative="1" as="geometry" />
        </mxCell>
        <mxCell id="9nWUdpXoiX7ommuwFst7-3" value="TF 2.2" style="rounded=1;whiteSpace=wrap;html=1;" vertex="1" parent="1">
          <mxGeometry x="174" y="160" width="120" height="60" as="geometry" />
        </mxCell>
        <mxCell id="9nWUdpXoiX7ommuwFst7-6" style="edgeStyle=orthogonalEdgeStyle;rounded=0;orthogonalLoop=1;jettySize=auto;html=1;exitX=0.5;exitY=0;exitDx=0;exitDy=0;entryX=0.5;entryY=1;entryDx=0;entryDy=0;" edge="1" parent="1" source="9nWUdpXoiX7ommuwFst7-4" target="9nWUdpXoiX7ommuwFst7-1">
          <mxGeometry relative="1" as="geometry" />
        </mxCell>
        <mxCell id="9nWUdpXoiX7ommuwFst7-22" style="edgeStyle=orthogonalEdgeStyle;rounded=0;orthogonalLoop=1;jettySize=auto;html=1;" edge="1" parent="1" source="9nWUdpXoiX7ommuwFst7-4" target="9nWUdpXoiX7ommuwFst7-21">
          <mxGeometry relative="1" as="geometry">
            <Array as="points">
              <mxPoint x="594" y="190" />
            </Array>
          </mxGeometry>
        </mxCell>
        <mxCell id="9nWUdpXoiX7ommuwFst7-4" value="TF 2.7" style="rounded=1;whiteSpace=wrap;html=1;" vertex="1" parent="1">
          <mxGeometry x="414" y="160" width="120" height="60" as="geometry" />
        </mxCell>
        <mxCell id="9nWUdpXoiX7ommuwFst7-7" value="Download" style="text;html=1;strokeColor=none;fillColor=none;align=center;verticalAlign=middle;whiteSpace=wrap;rounded=0;" vertex="1" parent="1">
          <mxGeometry x="324" y="140" width="60" height="30" as="geometry" />
        </mxCell>
        <mxCell id="9nWUdpXoiX7ommuwFst7-13" value="" style="edgeStyle=orthogonalEdgeStyle;rounded=0;orthogonalLoop=1;jettySize=auto;html=1;" edge="1" parent="1" source="9nWUdpXoiX7ommuwFst7-8" target="9nWUdpXoiX7ommuwFst7-12">
          <mxGeometry relative="1" as="geometry" />
        </mxCell>
        <mxCell id="9nWUdpXoiX7ommuwFst7-8" value="GA" style="rounded=0;whiteSpace=wrap;html=1;" vertex="1" parent="1">
          <mxGeometry x="174" y="250" width="120" height="60" as="geometry" />
        </mxCell>
        <mxCell id="9nWUdpXoiX7ommuwFst7-17" style="edgeStyle=orthogonalEdgeStyle;rounded=0;orthogonalLoop=1;jettySize=auto;html=1;entryX=0;entryY=0.5;entryDx=0;entryDy=0;" edge="1" parent="1" source="9nWUdpXoiX7ommuwFst7-12" target="9nWUdpXoiX7ommuwFst7-16">
          <mxGeometry relative="1" as="geometry" />
        </mxCell>
        <mxCell id="9nWUdpXoiX7ommuwFst7-12" value="TF 2.2/Keras 2.3 Model" style="rounded=0;whiteSpace=wrap;html=1;" vertex="1" parent="1">
          <mxGeometry x="174" y="340" width="120" height="60" as="geometry" />
        </mxCell>
        <mxCell id="9nWUdpXoiX7ommuwFst7-19" style="edgeStyle=orthogonalEdgeStyle;rounded=0;orthogonalLoop=1;jettySize=auto;html=1;entryX=0.5;entryY=1;entryDx=0;entryDy=0;" edge="1" parent="1" source="9nWUdpXoiX7ommuwFst7-16" target="9nWUdpXoiX7ommuwFst7-4">
          <mxGeometry relative="1" as="geometry">
            <Array as="points">
              <mxPoint x="474" y="480" />
            </Array>
          </mxGeometry>
        </mxCell>
        <mxCell id="9nWUdpXoiX7ommuwFst7-16" value="Redis" style="rounded=0;whiteSpace=wrap;html=1;" vertex="1" parent="1">
          <mxGeometry x="294" y="450" width="120" height="60" as="geometry" />
        </mxCell>
        <mxCell id="9nWUdpXoiX7ommuwFst7-18" value="Model&amp;nbsp;&lt;br&gt;Weights" style="text;html=1;strokeColor=none;fillColor=none;align=center;verticalAlign=middle;whiteSpace=wrap;rounded=0;" vertex="1" parent="1">
          <mxGeometry x="250" y="410" width="60" height="30" as="geometry" />
        </mxCell>
        <mxCell id="9nWUdpXoiX7ommuwFst7-21" value="TF 2.7 Model" style="rounded=0;whiteSpace=wrap;html=1;fillColor=#fff2cc;strokeColor=#d6b656;" vertex="1" parent="1">
          <mxGeometry x="534" y="340" width="120" height="60" as="geometry" />
        </mxCell>
        <mxCell id="9nWUdpXoiX7ommuwFst7-23" value="Load&lt;br&gt;Weights" style="text;html=1;strokeColor=none;fillColor=none;align=center;verticalAlign=middle;whiteSpace=wrap;rounded=0;" vertex="1" parent="1">
          <mxGeometry x="610" y="240" width="60" height="30" as="geometry" />
        </mxCell>
      </root>
    </mxGraphModel>
  </diagram>
</mxfile>